<?xml version="1.0" encoding="utf-8"?>
<!-- Generator: Adobe Illustrator 22.0.1, SVG Export Plug-In . SVG Version: 6.00 Build 0)  -->
<svg version="1.1" id="Layer_1" xmlns="http://www.w3.org/2000/svg" xmlns:xlink="http://www.w3.org/1999/xlink" x="0px" y="0px"
	 viewBox="0 0 108 108" style="enable-background:new 0 0 108 108;" xml:space="preserve">
<style type="text/css">
	.st0{fill:#FFFFFF;}
</style>
<path class="st0" d="M79.9,1.2c-14.4,0-26.1,12.6-26.1,28s11.7,28,26.1,28s26.1-12.6,26.1-28S94.3,1.2,79.9,1.2z M80.3,40.9
	c-5,0-9.1-5.3-9.1-11.8s4.1-11.8,9.1-11.8s9.1,5.3,9.1,11.8S85.3,40.9,80.3,40.9z"/>
<path class="st0" d="M86.6,54.5l-15.2-1.1l-20.6,53.3h17.4l2.5-7.2h15.9l2.5,7.2H106L86.6,54.5z M73.5,85.2l5.7-16.7l4,16.7H73.5z"
	/>
<path class="st0" d="M49.3,90.4c0-4.5-6.5-8.7-6.5-8.7c6.2-3.5,7.7-8.5,7.7-8.5c2.2-14.2-10.7-17.7-10.7-17.7h10.7V2.4H33.1V21H18.2
	V3.8H2v102.8h16.2V88.5c0,0,2,0,9.5,0.2c7.5,0.2,8.5,17.9,8.5,17.9h14.7C49.3,105.6,49.3,94.9,49.3,90.4z M18.8,34.5H34v18.9H18.8
	V34.5z M18.5,76.5V65.8c16.7-1.2,15.7,4,15.7,4C35.4,78.8,18.5,76.5,18.5,76.5z"/>
</svg>
